<svg width="157" height="60" viewBox="0 0 157 60" fill="none" xmlns="http://www.w3.org/2000/svg">
<path d="M0.286255 19.7429H2.56126V34.5305C2.56126 35.9133 2.71739 37.0954 3.02964 38.0768C3.3419 39.0359 3.79913 39.8277 4.40134 40.4522C5.00355 41.0544 5.73958 41.5005 6.60943 41.7904C7.47929 42.0581 8.46066 42.1919 9.55356 42.1919C10.6688 42.1919 11.6613 42.0581 12.5311 41.7904C13.401 41.5005 14.137 41.0544 14.7392 40.4522C15.3414 39.8277 15.7987 39.0359 16.1109 38.0768C16.4232 37.0954 16.5793 35.9133 16.5793 34.5305V19.7429H18.8543V35.0323C18.8543 36.259 18.6759 37.43 18.319 38.5452C17.9845 39.6381 17.438 40.5971 16.6797 41.4224C15.9436 42.2476 14.9846 42.9056 13.8025 43.3963C12.6427 43.8647 11.2264 44.0989 9.55356 44.0989C7.90306 44.0989 6.48676 43.8647 5.30465 43.3963C4.14484 42.9056 3.18577 42.2476 2.42744 41.4224C1.69141 40.5971 1.14496 39.6381 0.788094 38.5452C0.453535 37.43 0.286255 36.259 0.286255 35.0323V19.7429Z" fill="white"/>
<path d="M27.5719 30.9841H31.6536C32.2558 30.9841 32.8357 30.9395 33.3933 30.8503C33.9509 30.7611 34.4416 30.5938 34.8653 30.3485C35.2891 30.0808 35.6237 29.7128 35.869 29.2444C36.1367 28.776 36.2705 28.1627 36.2705 27.4043C36.2705 26.646 36.1367 26.0326 35.869 25.5643C35.6237 25.0959 35.2891 24.739 34.8653 24.4937C34.4416 24.226 33.9509 24.0476 33.3933 23.9584C32.8357 23.8692 32.2558 23.8246 31.6536 23.8246H27.5719V30.9841ZM22.3194 19.7429H33.0922C34.5865 19.7429 35.8579 19.966 36.9062 20.412C37.9544 20.8358 38.802 21.4046 39.4488 22.1183C40.1179 22.832 40.5975 23.6461 40.8874 24.5606C41.1997 25.475 41.3558 26.423 41.3558 27.4043C41.3558 28.3634 41.1997 29.3113 40.8874 30.2481C40.5975 31.1626 40.1179 31.9767 39.4488 32.6904C38.802 33.4041 37.9544 33.984 36.9062 34.4301C35.8579 34.8539 34.5865 35.0658 33.0922 35.0658H27.5719V43.6305H22.3194V19.7429Z" fill="white"/>
<path d="M27.5719 30.9841H31.6536C32.2558 30.9841 32.8357 30.9395 33.3933 30.8503C33.9509 30.7611 34.4416 30.5938 34.8653 30.3485C35.2891 30.0808 35.6237 29.7128 35.869 29.2444C36.1367 28.776 36.2705 28.1627 36.2705 27.4043C36.2705 26.646 36.1367 26.0326 35.869 25.5643C35.6237 25.0959 35.2891 24.739 34.8653 24.4937C34.4416 24.226 33.9509 24.0476 33.3933 23.9584C32.8357 23.8692 32.2558 23.8246 31.6536 23.8246H27.5719V30.9841ZM22.3194 19.7429H33.0922C34.5865 19.7429 35.8579 19.966 36.9062 20.412C37.9544 20.8358 38.802 21.4046 39.4488 22.1183C40.1179 22.832 40.5975 23.6461 40.8874 24.5606C41.1997 25.475 41.3558 26.423 41.3558 27.4043C41.3558 28.3634 41.1997 29.3113 40.8874 30.2481C40.5975 31.1626 40.1179 31.9767 39.4488 32.6904C38.802 33.4041 37.9544 33.984 36.9062 34.4301C35.8579 34.8539 34.5865 35.0658 33.0922 35.0658H27.5719V43.6305H22.3194V19.7429Z" fill="white"/>
<path d="M48.8831 30.5492H54.6376C55.842 30.5492 56.7453 30.2816 57.3475 29.7463C57.9497 29.211 58.2508 28.3411 58.2508 27.1367C58.2508 25.9769 57.9497 25.1405 57.3475 24.6275C56.7453 24.0922 55.842 23.8246 54.6376 23.8246H48.8831V30.5492ZM43.6305 19.7429H56.5111C57.5817 19.7429 58.5408 19.9214 59.3883 20.2782C60.2582 20.6128 60.9942 21.0812 61.5964 21.6834C62.2209 22.2856 62.6893 22.9882 63.0015 23.7911C63.3361 24.5717 63.5034 25.4193 63.5034 26.3338C63.5034 27.7389 63.2023 28.9545 62.6001 29.9805C62.0202 31.0064 61.0611 31.7871 59.7229 32.3224V32.3893C60.3697 32.5677 60.905 32.8465 61.3288 33.2257C61.7525 33.5825 62.0982 34.0175 62.3659 34.5305C62.6335 35.0212 62.8231 35.5676 62.9346 36.1698C63.0685 36.772 63.1577 37.3742 63.2023 37.9764C63.2246 38.3556 63.2469 38.8017 63.2692 39.3147C63.2915 39.8277 63.325 40.3518 63.3696 40.8871C63.4365 41.4224 63.5257 41.9354 63.6372 42.4261C63.771 42.8945 63.9606 43.2959 64.206 43.6305H58.9534C58.6634 42.8722 58.485 41.9688 58.4181 40.9206C58.3512 39.8723 58.2508 38.8686 58.117 37.9095C57.9385 36.6605 57.5594 35.746 56.9795 35.1661C56.3996 34.5862 55.4517 34.2963 54.1357 34.2963H48.8831V43.6305H43.6305V19.7429Z" fill="white"/>
<path d="M48.8831 30.5492H54.6376C55.842 30.5492 56.7453 30.2816 57.3475 29.7463C57.9497 29.211 58.2508 28.3411 58.2508 27.1367C58.2508 25.9769 57.9497 25.1405 57.3475 24.6275C56.7453 24.0922 55.842 23.8246 54.6376 23.8246H48.8831V30.5492ZM43.6305 19.7429H56.5111C57.5817 19.7429 58.5408 19.9214 59.3883 20.2782C60.2582 20.6128 60.9942 21.0812 61.5964 21.6834C62.2209 22.2856 62.6893 22.9882 63.0015 23.7911C63.3361 24.5717 63.5034 25.4193 63.5034 26.3338C63.5034 27.7389 63.2023 28.9545 62.6001 29.9805C62.0202 31.0064 61.0611 31.7871 59.7229 32.3224V32.3893C60.3697 32.5677 60.905 32.8465 61.3288 33.2257C61.7525 33.5825 62.0982 34.0175 62.3659 34.5305C62.6335 35.0212 62.8231 35.5676 62.9346 36.1698C63.0685 36.772 63.1577 37.3742 63.2023 37.9764C63.2246 38.3556 63.2469 38.8017 63.2692 39.3147C63.2915 39.8277 63.325 40.3518 63.3696 40.8871C63.4365 41.4224 63.5257 41.9354 63.6372 42.4261C63.771 42.8945 63.9606 43.2959 64.206 43.6305H58.9534C58.6634 42.8722 58.485 41.9688 58.4181 40.9206C58.3512 39.8723 58.2508 38.8686 58.117 37.9095C57.9385 36.6605 57.5594 35.746 56.9795 35.1661C56.3996 34.5862 55.4517 34.2963 54.1357 34.2963H48.8831V43.6305H43.6305V19.7429Z" fill="white"/>
<path d="M67.8754 31.6867C67.8754 32.9803 68.0427 34.2628 68.3772 35.5341C68.7341 36.7832 69.2694 37.9095 69.9831 38.9132C70.7192 39.8946 71.6559 40.6864 72.7934 41.2886C73.9309 41.8908 75.2915 42.1919 76.8751 42.1919C78.4586 42.1919 79.808 41.8908 80.9232 41.2886C82.0607 40.6864 82.9863 39.8946 83.7001 38.9132C84.4361 37.9095 84.9714 36.7832 85.306 35.5341C85.6628 34.2628 85.8413 32.9803 85.8413 31.6867C85.8413 30.3708 85.6628 29.0883 85.306 27.8393C84.9714 26.5902 84.4361 25.4751 83.7001 24.4937C82.9863 23.49 82.0607 22.6871 80.9232 22.0848C79.808 21.4826 78.4586 21.1815 76.8751 21.1815C75.2915 21.1815 73.9309 21.4826 72.7934 22.0848C71.6559 22.6871 70.7192 23.49 69.9831 24.4937C69.2694 25.4751 68.7341 26.5902 68.3772 27.8393C68.0427 29.0883 67.8754 30.3708 67.8754 31.6867ZM65.6004 31.6867C65.6004 30.0362 65.8346 28.4638 66.303 26.9694C66.7714 25.4751 67.4739 24.1591 68.4107 23.0216C69.3475 21.8618 70.5184 20.9473 71.9236 20.2782C73.351 19.5868 75.0015 19.2411 76.8751 19.2411C78.7486 19.2411 80.3879 19.5868 81.7931 20.2782C83.1982 20.9473 84.3692 21.8618 85.306 23.0216C86.2427 24.1591 86.9453 25.4751 87.4137 26.9694C87.8821 28.4638 88.1163 30.0362 88.1163 31.6867C88.1163 33.3372 87.8821 34.9096 87.4137 36.404C86.9453 37.8984 86.2427 39.2143 85.306 40.3518C84.3692 41.4893 83.1982 42.4038 81.7931 43.0952C80.3879 43.7643 78.7486 44.0989 76.8751 44.0989C75.0015 44.0989 73.351 43.7643 71.9236 43.0952C70.5184 42.4038 69.3475 41.4893 68.4107 40.3518C67.4739 39.2143 66.7714 37.8984 66.303 36.404C65.8346 34.9096 65.6004 33.3372 65.6004 31.6867Z" fill="white"/>
<path d="M94.045 34.2628H103.446L98.8292 22.0179L94.045 34.2628ZM97.6583 19.7429H100.201L109.569 43.6305H107.126L104.216 36.2033H93.3424L90.4652 43.6305H88.0564L97.6583 19.7429Z" fill="white"/>
<path d="M113.011 31.0845H121.508C122.2 31.0845 122.858 30.9841 123.482 30.7834C124.107 30.5604 124.653 30.2481 125.122 29.8466C125.59 29.4452 125.958 28.9656 126.226 28.408C126.516 27.8281 126.661 27.1702 126.661 26.4341C126.661 24.9621 126.237 23.8023 125.389 22.9547C124.542 22.1071 123.248 21.6834 121.508 21.6834H113.011V31.0845ZM110.736 19.7429H121.676C122.657 19.7429 123.583 19.8656 124.453 20.1109C125.345 20.3563 126.114 20.7355 126.761 21.2484C127.43 21.7391 127.954 22.3859 128.333 23.1889C128.735 23.9695 128.936 24.8951 128.936 25.9657C128.936 27.4824 128.545 28.7983 127.765 29.9135C126.984 31.0287 125.824 31.7425 124.285 32.0547V32.1216C125.066 32.2332 125.713 32.445 126.226 32.7573C126.739 33.0472 127.151 33.4264 127.464 33.8948C127.798 34.3632 128.032 34.9096 128.166 35.5341C128.322 36.1364 128.423 36.7943 128.467 37.508C128.49 37.9095 128.512 38.4002 128.534 38.9801C128.557 39.56 128.601 40.1511 128.668 40.7533C128.735 41.3332 128.835 41.8908 128.969 42.4261C129.125 42.9391 129.326 43.3405 129.571 43.6305H127.062C126.928 43.4074 126.817 43.1398 126.728 42.8275C126.661 42.493 126.605 42.1584 126.56 41.8239C126.538 41.467 126.516 41.1213 126.493 40.7867C126.471 40.4522 126.449 40.1622 126.426 39.9169C126.382 39.0693 126.304 38.2329 126.192 37.4077C126.103 36.5601 125.891 35.8129 125.557 35.1661C125.244 34.497 124.776 33.9617 124.151 33.5602C123.549 33.1588 122.713 32.9803 121.642 33.0249H113.011V43.6305H110.736V19.7429Z" fill="white"/>
<path d="M68.5548 47.1157H69.4002V51.0875H69.427C69.5164 50.837 69.6417 50.6179 69.8027 50.43C69.9727 50.2422 70.165 50.0856 70.3797 49.9604C70.5944 49.8262 70.827 49.7278 71.0774 49.6652C71.3279 49.6026 71.5784 49.5712 71.8288 49.5712C72.3566 49.5712 72.8128 49.6696 73.1975 49.8664C73.5911 50.0632 73.9176 50.3316 74.177 50.6715C74.4364 51.0025 74.6288 51.3916 74.754 51.8389C74.8792 52.2772 74.9419 52.7424 74.9419 53.2344C74.9419 53.7264 74.8792 54.196 74.754 54.6433C74.6288 55.0816 74.4364 55.4708 74.177 55.8107C73.9176 56.1417 73.5911 56.4056 73.1975 56.6024C72.8128 56.7902 72.3566 56.8841 71.8288 56.8841C71.2653 56.8841 70.7599 56.7544 70.3126 56.495C69.8743 56.2356 69.5567 55.8644 69.3599 55.3813H69.3331V56.6963H68.5548V47.1157ZM74.0965 53.2344C74.0965 52.8766 74.0518 52.5232 73.9623 52.1744C73.8818 51.8166 73.7476 51.499 73.5598 51.2217C73.3809 50.9444 73.1483 50.7207 72.862 50.5508C72.5758 50.3719 72.2314 50.2824 71.8288 50.2824C71.3816 50.2824 71.0014 50.3719 70.6883 50.5508C70.3842 50.7207 70.1337 50.9444 69.9369 51.2217C69.749 51.499 69.6104 51.8166 69.5209 52.1744C69.4404 52.5232 69.4002 52.8766 69.4002 53.2344C69.4002 53.5922 69.4404 53.95 69.5209 54.3079C69.6104 54.6567 69.749 54.9698 69.9369 55.2471C70.1337 55.5244 70.3842 55.7526 70.6883 55.9315C71.0014 56.1014 71.3816 56.1864 71.8288 56.1864C72.2314 56.1864 72.5758 56.1014 72.862 55.9315C73.1483 55.7526 73.3809 55.5244 73.5598 55.2471C73.7476 54.9698 73.8818 54.6567 73.9623 54.3079C74.0518 53.95 74.0965 53.5922 74.0965 53.2344Z" fill="white"/>
<path d="M75.079 49.7725H75.978L78.2591 55.6765L80.3926 49.7725H81.2379L78.2322 57.7429C78.107 58.0381 77.9907 58.2796 77.8834 58.4675C77.776 58.6643 77.6553 58.8164 77.5211 58.9237C77.3958 59.04 77.2438 59.1205 77.0649 59.1652C76.8949 59.2189 76.6757 59.2457 76.4074 59.2457C76.2374 59.2368 76.1032 59.2279 76.0048 59.2189C75.9154 59.2189 75.8349 59.2055 75.7633 59.1787V58.4675C75.8617 58.4854 75.9556 58.4988 76.0451 58.5077C76.1435 58.5256 76.2419 58.5346 76.3403 58.5346C76.5281 58.5346 76.6802 58.5077 76.7965 58.4541C76.9217 58.4004 77.0291 58.3244 77.1185 58.226C77.208 58.1365 77.284 58.0247 77.3466 57.8905C77.4093 57.7563 77.4764 57.6087 77.5479 57.4477L77.8431 56.6695L75.079 49.7725Z" fill="white"/>
<path d="M84.9978 49.7725H85.7761V50.9399H85.8163C86.04 50.5105 86.3307 50.1751 86.6885 49.9335C87.0553 49.692 87.5204 49.5712 88.084 49.5712C88.5402 49.5712 88.9517 49.6831 89.3185 49.9067C89.6942 50.1303 89.9447 50.4703 90.0699 50.9265C90.2756 50.4703 90.5798 50.1303 90.9823 49.9067C91.3849 49.6831 91.8143 49.5712 92.2705 49.5712C93.8001 49.5712 94.565 50.3808 94.565 51.9999V56.6963H93.7196V52.0402C93.7196 51.4677 93.5989 51.0338 93.3573 50.7386C93.1158 50.4345 92.6909 50.2824 92.0826 50.2824C91.7159 50.2824 91.4117 50.354 91.1702 50.4971C90.9287 50.6313 90.7363 50.8147 90.5932 51.0472C90.4501 51.2798 90.3472 51.5482 90.2846 51.8523C90.2309 52.1475 90.2041 52.4562 90.2041 52.7782V56.6963H89.3587V51.9999C89.3587 51.7674 89.3319 51.5482 89.2782 51.3424C89.2335 51.1278 89.153 50.9444 89.0367 50.7923C88.9294 50.6313 88.7818 50.506 88.5939 50.4166C88.406 50.3271 88.1779 50.2824 87.9096 50.2824C87.5518 50.2824 87.2387 50.3495 86.9703 50.4837C86.7109 50.6089 86.4962 50.7878 86.3262 51.0204C86.1652 51.244 86.0444 51.5124 85.9639 51.8255C85.8834 52.1296 85.8432 52.4651 85.8432 52.8319V56.6963H84.9978V49.7725Z" fill="white"/>
<path d="M98.6979 50.2824C98.2953 50.2824 97.942 50.3674 97.6378 50.5374C97.3337 50.7073 97.0788 50.931 96.873 51.2083C96.6762 51.4856 96.5241 51.8031 96.4168 52.161C96.3184 52.5098 96.2692 52.8676 96.2692 53.2344C96.2692 53.6012 96.3184 53.9635 96.4168 54.3213C96.5241 54.6702 96.6762 54.9832 96.873 55.2606C97.0788 55.5379 97.3337 55.7615 97.6378 55.9315C97.942 56.1014 98.2953 56.1864 98.6979 56.1864C99.1004 56.1864 99.4538 56.1014 99.7579 55.9315C100.062 55.7615 100.313 55.5379 100.509 55.2606C100.715 54.9832 100.867 54.6702 100.966 54.3213C101.073 53.9635 101.127 53.6012 101.127 53.2344C101.127 52.8676 101.073 52.5098 100.966 52.161C100.867 51.8031 100.715 51.4856 100.509 51.2083C100.313 50.931 100.062 50.7073 99.7579 50.5374C99.4538 50.3674 99.1004 50.2824 98.6979 50.2824ZM98.6979 49.5712C99.2257 49.5712 99.6908 49.6696 100.093 49.8664C100.505 50.0632 100.849 50.3271 101.127 50.6581C101.404 50.9891 101.614 51.3782 101.757 51.8255C101.9 52.2638 101.972 52.7335 101.972 53.2344C101.972 53.7354 101.9 54.2095 101.757 54.6567C101.614 55.0951 101.404 55.4797 101.127 55.8107C100.849 56.1417 100.505 56.4056 100.093 56.6024C99.6908 56.7902 99.2257 56.8841 98.6979 56.8841C98.1701 56.8841 97.7005 56.7902 97.289 56.6024C96.8864 56.4056 96.5465 56.1417 96.2692 55.8107C95.9919 55.4797 95.7817 55.0951 95.6385 54.6567C95.4954 54.2095 95.4239 53.7354 95.4239 53.2344C95.4239 52.7335 95.4954 52.2638 95.6385 51.8255C95.7817 51.3782 95.9919 50.9891 96.2692 50.6581C96.5465 50.3271 96.8864 50.0632 97.289 49.8664C97.7005 49.6696 98.1701 49.5712 98.6979 49.5712Z" fill="white"/>
<path d="M102.826 47.1157H103.672V51.0875H103.698C103.788 50.837 103.913 50.6179 104.074 50.43C104.244 50.2422 104.436 50.0856 104.651 49.9604C104.866 49.8262 105.098 49.7278 105.349 49.6652C105.599 49.6026 105.85 49.5712 106.1 49.5712C106.628 49.5712 107.084 49.6696 107.469 49.8664C107.862 50.0632 108.189 50.3316 108.448 50.6715C108.708 51.0025 108.9 51.3916 109.025 51.8389C109.151 52.2772 109.213 52.7424 109.213 53.2344C109.213 53.7264 109.151 54.196 109.025 54.6433C108.9 55.0816 108.708 55.4708 108.448 55.8107C108.189 56.1417 107.862 56.4056 107.469 56.6024C107.084 56.7902 106.628 56.8841 106.1 56.8841C105.537 56.8841 105.031 56.7544 104.584 56.495C104.146 56.2356 103.828 55.8644 103.631 55.3813H103.604V56.6963H102.826V47.1157ZM108.368 53.2344C108.368 52.8766 108.323 52.5232 108.234 52.1744C108.153 51.8166 108.019 51.499 107.831 51.2217C107.652 50.9444 107.42 50.7207 107.133 50.5508C106.847 50.3719 106.503 50.2824 106.1 50.2824C105.653 50.2824 105.273 50.3719 104.96 50.5508C104.656 50.7207 104.405 50.9444 104.208 51.2217C104.02 51.499 103.882 51.8166 103.792 52.1744C103.712 52.5232 103.672 52.8766 103.672 53.2344C103.672 53.5922 103.712 53.95 103.792 54.3079C103.882 54.6567 104.02 54.9698 104.208 55.2471C104.405 55.5244 104.656 55.7526 104.96 55.9315C105.273 56.1014 105.653 56.1864 106.1 56.1864C106.503 56.1864 106.847 56.1014 107.133 55.9315C107.42 55.7526 107.652 55.5244 107.831 55.2471C108.019 54.9698 108.153 54.6567 108.234 54.3079C108.323 53.95 108.368 53.5922 108.368 53.2344Z" fill="white"/>
<path d="M115.737 56.6963H114.959V55.4484H114.932C114.709 55.9136 114.382 56.2714 113.953 56.5219C113.532 56.7634 113.063 56.8841 112.544 56.8841C112.106 56.8841 111.73 56.8215 111.417 56.6963C111.113 56.58 110.862 56.41 110.665 56.1864C110.477 55.9628 110.339 55.6899 110.249 55.3679C110.16 55.0459 110.115 54.6791 110.115 54.2676V49.7725H110.961V54.281C110.978 54.9072 111.122 55.3813 111.39 55.7034C111.667 56.0254 112.141 56.1864 112.812 56.1864C113.179 56.1864 113.492 56.1104 113.751 55.9583C114.011 55.7973 114.226 55.5871 114.396 55.3276C114.566 55.0682 114.691 54.773 114.771 54.442C114.852 54.1021 114.892 53.7577 114.892 53.4088V49.7725H115.737V56.6963Z" fill="white"/>
<path d="M116.933 49.7725H117.711V51.3961H117.738C117.953 50.8326 118.284 50.3987 118.731 50.0946C119.187 49.7904 119.729 49.6518 120.355 49.6786V50.5239C119.97 50.506 119.621 50.5597 119.308 50.685C118.995 50.8012 118.722 50.9712 118.49 51.1948C118.266 51.4185 118.092 51.6868 117.966 51.9999C117.841 52.3041 117.778 52.6395 117.778 53.0063V56.6963H116.933V49.7725Z" fill="white"/>
<path d="M124.909 51.7987C124.9 51.5392 124.847 51.3156 124.748 51.1278C124.65 50.931 124.516 50.7699 124.346 50.6447C124.185 50.5195 123.997 50.43 123.782 50.3763C123.567 50.3137 123.339 50.2824 123.098 50.2824C122.91 50.2824 122.718 50.3048 122.521 50.3495C122.333 50.3853 122.159 50.4524 121.997 50.5508C121.836 50.6402 121.707 50.761 121.608 50.9131C121.51 51.0651 121.461 51.253 121.461 51.4766C121.461 51.6645 121.505 51.8255 121.595 51.9597C121.693 52.0849 121.814 52.1923 121.957 52.2817C122.1 52.3712 122.257 52.4472 122.427 52.5098C122.597 52.5635 122.753 52.6082 122.897 52.644L124.024 52.899C124.265 52.9347 124.502 53.0018 124.735 53.1002C124.976 53.1897 125.187 53.3104 125.365 53.4625C125.553 53.6146 125.705 53.8024 125.822 54.0261C125.938 54.2497 125.996 54.5136 125.996 54.8178C125.996 55.1935 125.911 55.5155 125.741 55.7839C125.571 56.0433 125.352 56.258 125.084 56.4279C124.824 56.5889 124.529 56.7052 124.198 56.7768C123.867 56.8484 123.541 56.8841 123.219 56.8841C122.405 56.8841 121.743 56.6918 121.233 56.3072C120.732 55.9225 120.445 55.3053 120.374 54.4555H121.219C121.255 55.028 121.461 55.4618 121.836 55.757C122.221 56.0433 122.695 56.1864 123.259 56.1864C123.465 56.1864 123.675 56.164 123.889 56.1193C124.113 56.0746 124.319 55.9986 124.507 55.8912C124.695 55.7839 124.847 55.6497 124.963 55.4887C125.088 55.3187 125.151 55.113 125.151 54.8714C125.151 54.6657 125.106 54.4957 125.017 54.3615C124.936 54.2184 124.824 54.1021 124.681 54.0127C124.538 53.9143 124.372 53.8338 124.185 53.7711C124.006 53.7085 123.822 53.6548 123.635 53.6101L122.548 53.3686C122.27 53.297 122.015 53.2165 121.783 53.1271C121.55 53.0287 121.344 52.9124 121.166 52.7782C120.996 52.6351 120.861 52.4651 120.763 52.2683C120.665 52.0626 120.615 51.8121 120.615 51.5169C120.615 51.168 120.691 50.8683 120.844 50.6179C121.005 50.3674 121.21 50.1661 121.461 50.014C121.711 49.862 121.989 49.7502 122.293 49.6786C122.606 49.607 122.914 49.5712 123.219 49.5712C123.567 49.5712 123.889 49.616 124.185 49.7054C124.489 49.7949 124.753 49.9335 124.976 50.1214C125.209 50.3092 125.392 50.5418 125.526 50.8191C125.661 51.0964 125.737 51.423 125.755 51.7987H124.909Z" fill="white"/>
<path d="M128.162 49.7725H129.571V50.4837H128.162V55.1532C128.162 55.4305 128.198 55.6497 128.27 55.8107C128.35 55.9628 128.543 56.0477 128.847 56.0656C129.088 56.0656 129.33 56.0522 129.571 56.0254V56.7365C129.446 56.7365 129.321 56.741 129.196 56.75C129.07 56.7589 128.945 56.7634 128.82 56.7634C128.256 56.7634 127.863 56.656 127.639 56.4413C127.415 56.2177 127.308 55.8107 127.317 55.2203V50.4837H126.109V49.7725H127.317V47.6927H128.162V49.7725Z" fill="white"/>
<path d="M143.013 24.0632L144.507 34.1298L150.36 32.9516L153.682 13.7303L153.772 13.2098L143.013 24.0632Z" fill="#FF6671"/>
<path d="M149.431 1.19299L143.565 2.18018L143.522 2.22346L142.553 2.3938L123.212 5.73177L122.038 11.6012L131.978 13.0806L147.214 8.15597L149.431 1.19299Z" fill="#3BD4FF"/>
<path d="M132.69 13.6304L134.762 21.3735L134.776 21.382L134.779 21.3792L142.354 23.4119L146.937 9.02576L132.69 13.6304Z" fill="#B9E045"/>
<path d="M154.006 11.9205L154.982 6.22518L156.068 0.0348196L156.071 0.0319964L156.075 0L150.254 1.05212L143.376 22.644L154.006 11.9205Z" fill="#FFDF3E"/>
</svg>
